<svg xmlns="http://www.w3.org/2000/svg" xmlns:xlink="http://www.w3.org/1999/xlink" viewBox="0 0 978 250" preserveAspectRatio="xMidYMid" style="display: block; shape-rendering: auto; background: rgb(12, 18, 38);" width="978" height="250"><style type="text/css">
  .ld-text text {
    text-anchor: middle;
    dominant-baseline: middle;
    font-size: 80px;
    opacity: 0;
    user-select: none;
    pointer-events: none;
  }
</style>
<g style="transform-origin:489px 125px;transform:scale(1)" class="ld-text">
<g transform="translate(489,125)">
  <g transform="scale(1.0000) translate(0,0)"><g class="path" style="opacity: 1; animation: 2.7027s linear -1.7027s infinite normal forwards running animate-l9pld9wpdt; transform-box: view-box; transform-origin: -347.79px -5.41px;"><path d="M37.93 45.21L32.89 45.21L32.89 19.62L11.45 19.62L11.45 45.21L6.41 45.21L6.41-10.81L11.45-10.81L11.45 14.82L32.89 14.82L32.89-10.81L37.93-10.81L37.93 45.21" style="fill: rgb(10, 230, 183);" transform="translate(-369.960,-22.607)"></path></g><g class="path" style="opacity: 1; animation: 2.7027s linear -1.62162s infinite normal forwards running animate-l9pld9wpdt; transform-box: view-box; transform-origin: -318.88px -30.21px;"><path d="M53.87-4.40L48.28-4.40L48.28-10.81L53.87-10.81L53.87-4.40" style="fill: rgb(10, 230, 183);" transform="translate(-369.960,-22.607)"></path></g><g class="path" style="opacity: 1; animation: 2.7027s linear -1.54054s infinite normal forwards running animate-l9pld9wpdt; transform-box: view-box; transform-origin: -318.88px 2.6px;"><path d="M53.48 45.21L48.67 45.21L48.67 5.21L53.48 5.21L53.48 45.21" style="fill: rgb(10, 230, 183);" transform="translate(-369.960,-22.607)"></path></g><g class="path" style="opacity: 1; animation: 2.7027s linear -1.45946s infinite normal forwards running animate-l9pld9wpdt; transform-box: view-box; transform-origin: -302.93px 25.2px;"><path d="M70.04 39.19L66.05 56.42L64.02 56.42L64.02 39.19L70.04 39.19" style="fill: rgb(10, 230, 183);" transform="translate(-369.960,-22.607)"></path></g><g class="path" style="opacity: 1; animation: 2.7027s linear -1.37838s infinite normal forwards running animate-l9pld9wpdt; transform-box: view-box; transform-origin: -267.01px -5.41px;"><path d="M105.47 45.21L100.43 45.21L100.43-10.81L105.47-10.81L105.47 45.21" style="fill: rgb(10, 230, 183);" transform="translate(-369.960,-22.607)"></path></g><g class="path" style="opacity: 1; animation: 2.7027s linear -1.2973s infinite normal forwards running animate-l9pld9wpdt; transform-box: view-box; transform-origin: -221.52px 2.6px;"><path d="M161.80 45.21L160.20 45.21L157.54 41.23Q155.90 43.37 153.44 44.68Q150.98 45.99 148.05 45.99L148.05 45.99L146.84 45.99Q144.41 45.99 142.27 45.07Q140.12 44.16 138.52 42.55Q136.91 40.95 136 38.80Q135.08 36.66 135.08 34.23L135.08 34.23L135.08 33.84Q135.08 31.42 136 29.27Q136.91 27.12 138.52 25.52Q140.12 23.92 142.27 23Q144.41 22.08 146.84 22.08L146.84 22.08L156.99 22.08L156.99 15.91Q156.99 14.47 156.45 13.20Q155.90 11.93 154.96 10.99Q154.02 10.05 152.75 9.51Q151.48 8.96 150.04 8.96L150.04 8.96L147.23 8.96Q145.78 8.96 144.51 9.51Q143.24 10.05 142.30 10.99Q141.37 11.93 140.82 13.20Q140.27 14.47 140.27 15.91L140.27 15.91L140.27 17.36L135.47 16.58L135.47 16.19Q135.47 13.76 136.39 11.62Q137.30 9.47 138.91 7.87Q140.51 6.26 142.66 5.35Q144.80 4.43 147.23 4.43L147.23 4.43L150.04 4.43Q152.46 4.43 154.61 5.35Q156.76 6.26 158.36 7.87Q159.96 9.47 160.88 11.62Q161.80 13.76 161.80 16.19L161.80 16.19L161.80 45.21 zM156.99 34.51L156.99 25.83L146.84 25.83Q145.39 25.83 144.12 26.38Q142.85 26.93 141.91 27.89Q140.98 28.84 140.43 30.11Q139.88 31.38 139.88 32.83L139.88 32.83L139.88 34.51Q139.88 35.95 140.43 37.22Q140.98 38.49 141.91 39.43Q142.85 40.37 144.12 40.91Q145.39 41.46 146.84 41.46L146.84 41.46L150.04 41.46Q151.48 41.46 152.75 40.91Q154.02 40.37 154.96 39.43Q155.90 38.49 156.45 37.22Q156.99 35.95 156.99 34.51L156.99 34.51" style="fill: rgb(10, 230, 183);" transform="translate(-369.960,-22.607)"></path></g><g class="path" style="opacity: 1; animation: 2.7027s linear -1.21622s infinite normal forwards running animate-l9pld9wpdt; transform-box: view-box; transform-origin: -175.03px 2.21px;"><path d="M218.44 45.21L213.63 45.21L213.63 15.91Q213.63 14.47 213.09 13.20Q212.54 11.93 211.60 10.99Q210.66 10.05 209.39 9.51Q208.13 8.96 206.68 8.96L206.68 8.96L204.30 8.96Q202.85 8.96 201.58 9.51Q200.31 10.05 199.36 10.99Q198.40 11.93 197.85 13.20Q197.30 14.47 197.30 15.91L197.30 15.91L197.30 45.21L192.54 45.21L192.54 15.91Q192.54 14.47 191.99 13.20Q191.45 11.93 190.49 10.99Q189.53 10.05 188.26 9.51Q186.99 8.96 185.55 8.96L185.55 8.96L183.16 8.96Q181.72 8.96 180.45 9.51Q179.18 10.05 178.24 10.99Q177.30 11.93 176.76 13.20Q176.21 14.47 176.21 15.91L176.21 15.91L176.21 45.21L171.41 45.21L171.41 5.21L173.01 5.21L175.63 9.27Q177.27 7.05 179.75 5.74Q182.23 4.43 185.16 4.43L185.16 4.43L185.55 4.43Q188.95 4.43 191.68 6.11Q194.41 7.79 195.90 10.56L195.90 10.56Q196.64 9.19 197.73 8.06Q198.83 6.93 200.16 6.13Q201.48 5.33 203.05 4.88Q204.61 4.43 206.29 4.43L206.29 4.43L206.68 4.43Q209.10 4.43 211.25 5.35Q213.40 6.26 215 7.87Q216.60 9.47 217.52 11.62Q218.44 13.76 218.44 16.19L218.44 16.19L218.44 45.21" style="fill: rgb(10, 230, 183);" transform="translate(-369.960,-22.607)"></path></g><g class="path" style="opacity: 1; animation: 2.7027s linear -1.13514s infinite normal forwards running animate-l9pld9wpdt; transform-box: view-box; transform-origin: -106.24px -5.41px;"><path d="M280.20 45.21L274.38 45.21L259.18 21.30L252.27 21.30L252.27 45.21L247.23 45.21L247.23-10.81L265-10.81Q267.85-10.81 270.35-9.73Q272.85-8.66 274.73-6.78Q276.60-4.91 277.68-2.39Q278.75 0.13 278.75 2.98L278.75 2.98L278.75 7.51Q278.75 10.37 277.68 12.89Q276.60 15.41 274.73 17.28Q272.85 19.16 270.35 20.23Q267.85 21.30 265 21.30L265 21.30L280.20 45.21 zM273.71 7.51L273.71 2.98Q273.71 1.11 273.01-0.51Q272.30-2.13 271.09-3.36Q269.88-4.59 268.26-5.30Q266.64-6 264.77-6L264.77-6L252.27-6L252.27 16.50L264.77 16.50Q266.64 16.50 268.26 15.80Q269.88 15.09 271.09 13.86Q272.30 12.63 273.01 11.01Q273.71 9.39 273.71 7.51L273.71 7.51" style="fill: rgb(10, 230, 183);" transform="translate(-369.960,-22.607)"></path></g><g class="path" style="opacity: 1; animation: 2.7027s linear -1.05405s infinite normal forwards running animate-l9pld9wpdt; transform-box: view-box; transform-origin: -68.4px 2.6px;"><path d="M314.92 45.21L313.32 45.21L310.66 41.23Q309.02 43.37 306.56 44.68Q304.10 45.99 301.17 45.99L301.17 45.99L299.96 45.99Q297.54 45.99 295.39 45.07Q293.24 44.16 291.64 42.55Q290.04 40.95 289.12 38.80Q288.20 36.66 288.20 34.23L288.20 34.23L288.20 33.84Q288.20 31.42 289.12 29.27Q290.04 27.12 291.64 25.52Q293.24 23.92 295.39 23Q297.54 22.08 299.96 22.08L299.96 22.08L310.12 22.08L310.12 15.91Q310.12 14.47 309.57 13.20Q309.02 11.93 308.09 10.99Q307.15 10.05 305.88 9.51Q304.61 8.96 303.16 8.96L303.16 8.96L300.35 8.96Q298.91 8.96 297.64 9.51Q296.37 10.05 295.43 10.99Q294.49 11.93 293.95 13.20Q293.40 14.47 293.40 15.91L293.40 15.91L293.40 17.36L288.59 16.58L288.59 16.19Q288.59 13.76 289.51 11.62Q290.43 9.47 292.03 7.87Q293.63 6.26 295.78 5.35Q297.93 4.43 300.35 4.43L300.35 4.43L303.16 4.43Q305.59 4.43 307.73 5.35Q309.88 6.26 311.48 7.87Q313.09 9.47 314 11.62Q314.92 13.76 314.92 16.19L314.92 16.19L314.92 45.21 zM310.12 34.51L310.12 25.83L299.96 25.83Q298.52 25.83 297.25 26.38Q295.98 26.93 295.04 27.89Q294.10 28.84 293.55 30.11Q293.01 31.38 293.01 32.83L293.01 32.83L293.01 34.51Q293.01 35.95 293.55 37.22Q294.10 38.49 295.04 39.43Q295.98 40.37 297.25 40.91Q298.52 41.46 299.96 41.46L299.96 41.46L303.16 41.46Q304.61 41.46 305.88 40.91Q307.15 40.37 308.09 39.43Q309.02 38.49 309.57 37.22Q310.12 35.95 310.12 34.51L310.12 34.51" style="fill: rgb(10, 230, 183);" transform="translate(-369.960,-22.607)"></path></g><g class="path" style="opacity: 1; animation: 2.7027s linear -0.972973s infinite normal forwards running animate-l9pld9wpdt; transform-box: view-box; transform-origin: -34.08px 2.6px;"><path d="M351.25 5.21L337.07 45.21L334.69 45.21L320.51 5.21L325.31 5.21L335.74 35.52L335.90 37.59L336.05 35.52L346.45 5.21L351.25 5.21" style="fill: rgb(10, 230, 183);" transform="translate(-369.960,-22.607)"></path></g><g class="path" style="opacity: 1; animation: 2.7027s linear -0.891892s infinite normal forwards running animate-l9pld9wpdt; transform-box: view-box; transform-origin: -9.12px -30.21px;"><path d="M363.63-4.40L358.05-4.40L358.05-10.81L363.63-10.81L363.63-4.40" style="fill: rgb(10, 230, 183);" transform="translate(-369.960,-22.607)"></path></g><g class="path" style="opacity: 1; animation: 2.7027s linear -0.810811s infinite normal forwards running animate-l9pld9wpdt; transform-box: view-box; transform-origin: -9.12px 2.6px;"><path d="M363.24 45.21L358.44 45.21L358.44 5.21L363.24 5.21L363.24 45.21" style="fill: rgb(10, 230, 183);" transform="translate(-369.960,-22.607)"></path></g><g class="path" style="opacity: 1; animation: 2.7027s linear -0.72973s infinite normal forwards running animate-l9pld9wpdt; transform-box: view-box; transform-origin: 39.44px -5.41px;"><path d="M425.16 32.24L425.16 32.24Q425.16 35.09 424.08 37.59Q423.01 40.09 421.13 41.97Q419.26 43.84 416.76 44.92Q414.26 45.99 411.41 45.99L411.41 45.99L407.42 45.99Q404.57 45.99 402.05 44.92Q399.53 43.84 397.66 41.97Q395.78 40.09 394.71 37.59Q393.63 35.09 393.63 32.24L393.63 32.24L393.63 2.16Q393.63-0.69 394.71-3.19Q395.78-5.69 397.66-7.56Q399.53-9.44 402.05-10.51Q404.57-11.59 407.42-11.59L407.42-11.59L411.41-11.59Q414.26-11.59 416.76-10.51Q419.26-9.44 421.13-7.56Q423.01-5.69 424.08-3.19Q425.16-0.69 425.16 2.16L425.16 2.16L425.16 4.43L420.12 5.21L420.12 2.16Q420.12 0.29 419.41-1.33Q418.71-2.95 417.50-4.17Q416.29-5.38 414.67-6.08Q413.05-6.78 411.17-6.78L411.17-6.78L407.66-6.78Q405.78-6.78 404.16-6.08Q402.54-5.38 401.31-4.17Q400.08-2.95 399.38-1.33Q398.67 0.29 398.67 2.16L398.67 2.16L398.67 32.24Q398.67 34.12 399.38 35.74Q400.08 37.36 401.31 38.59Q402.54 39.82 404.16 40.52Q405.78 41.23 407.66 41.23L407.66 41.23L411.17 41.23Q413.05 41.23 414.67 40.52Q416.29 39.82 417.50 38.59Q418.71 37.36 419.41 35.74Q420.12 34.12 420.12 32.24L420.12 32.24L420.12 29.19L425.16 30.01L425.16 32.24" style="fill: rgb(10, 230, 183);" transform="translate(-369.960,-22.607)"></path></g><g class="path" style="opacity: 1; animation: 2.7027s linear -0.648649s infinite normal forwards running animate-l9pld9wpdt; transform-box: view-box; transform-origin: 78.17px -5.41px;"><path d="M461.48 45.21L456.68 45.21L456.68 15.91Q456.68 14.47 456.13 13.20Q455.59 11.93 454.65 10.99Q453.71 10.05 452.44 9.51Q451.17 8.96 449.73 8.96L449.73 8.96L446.52 8.96Q445.08 8.96 443.81 9.51Q442.54 10.05 441.60 10.99Q440.66 11.93 440.12 13.20Q439.57 14.47 439.57 15.91L439.57 15.91L439.57 45.21L434.77 45.21L434.77-10.81L439.57-10.81L439.57 8.57Q441.21 6.62 443.52 5.52Q445.82 4.43 448.52 4.43L448.52 4.43L449.73 4.43Q452.15 4.43 454.30 5.35Q456.45 6.26 458.05 7.87Q459.65 9.47 460.57 11.62Q461.48 13.76 461.48 16.19L461.48 16.19L461.48 45.21" style="fill: rgb(10, 230, 183);" transform="translate(-369.960,-22.607)"></path></g><g class="path" style="opacity: 1; animation: 2.7027s linear -0.567568s infinite normal forwards running animate-l9pld9wpdt; transform-box: view-box; transform-origin: 114.49px 2.6px;"><path d="M497.81 45.21L496.21 45.21L493.55 41.23Q491.91 43.37 489.45 44.68Q486.99 45.99 484.06 45.99L484.06 45.99L482.85 45.99Q480.43 45.99 478.28 45.07Q476.13 44.16 474.53 42.55Q472.93 40.95 472.01 38.80Q471.09 36.66 471.09 34.23L471.09 34.23L471.09 33.84Q471.09 31.42 472.01 29.27Q472.93 27.12 474.53 25.52Q476.13 23.92 478.28 23Q480.43 22.08 482.85 22.08L482.85 22.08L493.01 22.08L493.01 15.91Q493.01 14.47 492.46 13.20Q491.91 11.93 490.98 10.99Q490.04 10.05 488.77 9.51Q487.50 8.96 486.05 8.96L486.05 8.96L483.24 8.96Q481.80 8.96 480.53 9.51Q479.26 10.05 478.32 10.99Q477.38 11.93 476.84 13.20Q476.29 14.47 476.29 15.91L476.29 15.91L476.29 17.36L471.48 16.58L471.48 16.19Q471.48 13.76 472.40 11.62Q473.32 9.47 474.92 7.87Q476.52 6.26 478.67 5.35Q480.82 4.43 483.24 4.43L483.24 4.43L486.05 4.43Q488.48 4.43 490.63 5.35Q492.77 6.26 494.38 7.87Q495.98 9.47 496.89 11.62Q497.81 13.76 497.81 16.19L497.81 16.19L497.81 45.21 zM493.01 34.51L493.01 25.83L482.85 25.83Q481.41 25.83 480.14 26.38Q478.87 26.93 477.93 27.89Q476.99 28.84 476.45 30.11Q475.90 31.38 475.90 32.83L475.90 32.83L475.90 34.51Q475.90 35.95 476.45 37.22Q476.99 38.49 477.93 39.43Q478.87 40.37 480.14 40.91Q481.41 41.46 482.85 41.46L482.85 41.46L486.05 41.46Q487.50 41.46 488.77 40.91Q490.04 40.37 490.98 39.43Q491.91 38.49 492.46 37.22Q493.01 35.95 493.01 34.51L493.01 34.51" style="fill: rgb(10, 230, 183);" transform="translate(-369.960,-22.607)"></path></g><g class="path" style="opacity: 1; animation: 2.7027s linear -0.486486s infinite normal forwards running animate-l9pld9wpdt; transform-box: view-box; transform-origin: 150.82px 2.99px;"><path d="M534.14 45.21L532.54 45.21L529.88 41.15Q528.24 43.37 525.78 44.68Q523.32 45.99 520.39 45.99L520.39 45.99L519.18 45.99Q516.76 45.99 514.61 45.07Q512.46 44.16 510.86 42.55Q509.26 40.95 508.34 38.80Q507.42 36.66 507.42 34.23L507.42 34.23L507.42 5.21L512.23 5.21L512.23 34.51Q512.23 35.95 512.77 37.22Q513.32 38.49 514.26 39.43Q515.20 40.37 516.46 40.91Q517.73 41.46 519.18 41.46L519.18 41.46L522.38 41.46Q523.83 41.46 525.10 40.91Q526.37 40.37 527.30 39.43Q528.24 38.49 528.79 37.22Q529.34 35.95 529.34 34.51L529.34 34.51L529.34 5.21L534.14 5.21L534.14 45.21" style="fill: rgb(10, 230, 183);" transform="translate(-369.960,-22.607)"></path></g><g class="path" style="opacity: 1; animation: 2.7027s linear -0.405405s infinite normal forwards running animate-l9pld9wpdt; transform-box: view-box; transform-origin: 187.15px -5.02px;"><path d="M570.47 45.21L568.87 45.21L566.21 41.15Q564.57 43.37 562.11 44.68Q559.65 45.99 556.72 45.99L556.72 45.99L555.51 45.99Q553.09 45.99 550.94 45.07Q548.79 44.16 547.19 42.55Q545.59 40.95 544.67 38.80Q543.75 36.66 543.75 34.23L543.75 34.23L543.75 16.19Q543.75 13.76 544.67 11.62Q545.59 9.47 547.19 7.87Q548.79 6.26 550.94 5.35Q553.09 4.43 555.51 4.43L555.51 4.43L556.72 4.43Q559.41 4.43 561.72 5.52Q564.02 6.62 565.66 8.57L565.66 8.57L565.66-10.81L570.47-10.81L570.47 45.21 zM565.66 34.51L565.66 15.91Q565.66 14.47 565.12 13.20Q564.57 11.93 563.63 10.99Q562.70 10.05 561.43 9.51Q560.16 8.96 558.71 8.96L558.71 8.96L555.51 8.96Q554.06 8.96 552.79 9.51Q551.52 10.05 550.59 10.99Q549.65 11.93 549.10 13.20Q548.55 14.47 548.55 15.91L548.55 15.91L548.55 34.51Q548.55 35.95 549.10 37.22Q549.65 38.49 550.59 39.43Q551.52 40.37 552.79 40.91Q554.06 41.46 555.51 41.46L555.51 41.46L558.71 41.46Q560.16 41.46 561.43 40.91Q562.70 40.37 563.63 39.43Q564.57 38.49 565.12 37.22Q565.66 35.95 565.66 34.51L565.66 34.51" style="fill: rgb(10, 230, 183);" transform="translate(-369.960,-22.607)"></path></g><g class="path" style="opacity: 1; animation: 2.7027s linear -0.324324s infinite normal forwards running animate-l9pld9wpdt; transform-box: view-box; transform-origin: 223.48px -5.41px;"><path d="M606.80 45.21L601.99 45.21L601.99 15.91Q601.99 14.47 601.45 13.20Q600.90 11.93 599.96 10.99Q599.02 10.05 597.75 9.51Q596.48 8.96 595.04 8.96L595.04 8.96L591.84 8.96Q590.39 8.96 589.12 9.51Q587.85 10.05 586.91 10.99Q585.98 11.93 585.43 13.20Q584.88 14.47 584.88 15.91L584.88 15.91L584.88 45.21L580.08 45.21L580.08-10.81L584.88-10.81L584.88 8.57Q586.52 6.62 588.83 5.52Q591.13 4.43 593.83 4.43L593.83 4.43L595.04 4.43Q597.46 4.43 599.61 5.35Q601.76 6.26 603.36 7.87Q604.96 9.47 605.88 11.62Q606.80 13.76 606.80 16.19L606.80 16.19L606.80 45.21" style="fill: rgb(10, 230, 183);" transform="translate(-369.960,-22.607)"></path></g><g class="path" style="opacity: 1; animation: 2.7027s linear -0.243243s infinite normal forwards running animate-l9pld9wpdt; transform-box: view-box; transform-origin: 259.81px 2.6px;"><path d="M643.13 45.21L641.52 45.21L638.87 41.23Q637.23 43.37 634.77 44.68Q632.30 45.99 629.38 45.99L629.38 45.99L628.16 45.99Q625.74 45.99 623.59 45.07Q621.45 44.16 619.84 42.55Q618.24 40.95 617.32 38.80Q616.41 36.66 616.41 34.23L616.41 34.23L616.41 33.84Q616.41 31.42 617.32 29.27Q618.24 27.12 619.84 25.52Q621.45 23.92 623.59 23Q625.74 22.08 628.16 22.08L628.16 22.08L638.32 22.08L638.32 15.91Q638.32 14.47 637.77 13.20Q637.23 11.93 636.29 10.99Q635.35 10.05 634.08 9.51Q632.81 8.96 631.37 8.96L631.37 8.96L628.55 8.96Q627.11 8.96 625.84 9.51Q624.57 10.05 623.63 10.99Q622.70 11.93 622.15 13.20Q621.60 14.47 621.60 15.91L621.60 15.91L621.60 17.36L616.80 16.58L616.80 16.19Q616.80 13.76 617.71 11.62Q618.63 9.47 620.23 7.87Q621.84 6.26 623.98 5.35Q626.13 4.43 628.55 4.43L628.55 4.43L631.37 4.43Q633.79 4.43 635.94 5.35Q638.09 6.26 639.69 7.87Q641.29 9.47 642.21 11.62Q643.13 13.76 643.13 16.19L643.13 16.19L643.13 45.21 zM638.32 34.51L638.32 25.83L628.16 25.83Q626.72 25.83 625.45 26.38Q624.18 26.93 623.24 27.89Q622.30 28.84 621.76 30.11Q621.21 31.38 621.21 32.83L621.21 32.83L621.21 34.51Q621.21 35.95 621.76 37.22Q622.30 38.49 623.24 39.43Q624.18 40.37 625.45 40.91Q626.72 41.46 628.16 41.46L628.16 41.46L631.37 41.46Q632.81 41.46 634.08 40.91Q635.35 40.37 636.29 39.43Q637.23 38.49 637.77 37.22Q638.32 35.95 638.32 34.51L638.32 34.51" style="fill: rgb(10, 230, 183);" transform="translate(-369.960,-22.607)"></path></g><g class="path" style="opacity: 1; animation: 2.7027s linear -0.162162s infinite normal forwards running animate-l9pld9wpdt; transform-box: view-box; transform-origin: 291.05px 2.21px;"><path d="M669.30 9.78L664.49 9.78Q663.05 9.78 661.78 10.33Q660.51 10.87 659.57 11.81Q658.63 12.75 658.09 14.02Q657.54 15.29 657.54 16.73L657.54 16.73L657.54 45.21L652.73 45.21L652.73 5.21L654.34 5.21L656.95 9.27Q658.59 7.05 661.07 5.74Q663.55 4.43 666.48 4.43L666.48 4.43L669.30 4.43L669.30 9.78" style="fill: rgb(10, 230, 183);" transform="translate(-369.960,-22.607)"></path></g><g class="path" style="opacity: 1; animation: 2.7027s linear -0.0810811s infinite normal forwards running animate-l9pld9wpdt; transform-box: view-box; transform-origin: 317.09px 10.61px;"><path d="M702.42 5.21L682.19 61.23L677.54 61.23L684.65 41.77L671.68 5.21L676.48 5.21L686.91 35.52L687.07 37.59L687.23 35.52L697.62 5.21L702.42 5.21" style="fill: rgb(10, 230, 183);" transform="translate(-369.960,-22.607)"></path></g><g class="path" style="opacity: 1; animation: 2.7027s linear 0s infinite normal forwards running animate-l9pld9wpdt; transform-box: view-box; transform-origin: 354.38px 36.34px;"><path d="M702.34 56.66L746.33 56.66L746.33 61.23L702.34 61.23L702.34 56.66" style="fill: rgb(10, 230, 183);" transform="translate(-369.960,-22.607)"></path></g></g><text dy="0.35em" fill="#0ae6b7" font-family="Abel" font-size="80">Hi, I am Ravi Chaudhary_</text>
</g>
</g><style type="text/css">@keyframes animate-l9pld9wpdt { 0.00% {animation-timing-function: cubic-bezier(0.33,0.00,0.67,0.00);transform: translate(0.00px,0.00px) rotate(0.00deg) scale(1.00, 1.00) skew(0deg, 0.00deg) ;opacity: 1.00;}48.00% {transform: translate(0.00px,0.00px) rotate(0.00deg) ;opacity: 1.00;}50.00% {animation-timing-function: cubic-bezier(0.33,0.00,0.67,0.00);transform: translate(0.00px,0.00px) rotate(0.00deg) ;opacity: 0.00;}100.00% {animation-timing-function: cubic-bezier(0.33,0.00,0.67,0.00);transform: translate(0.00px,0.00px) rotate(0.00deg) ;opacity: 0.00;} }</style><!-- [ldio] generated by https://loading.io --></svg>